<?xml version="1.0" encoding="UTF-8" standalone="no"?>
<!DOCTYPE svg PUBLIC "-//W3C//DTD SVG 1.1//EN"
 "http://www.w3.org/Graphics/SVG/1.1/DTD/svg11.dtd">
<!-- Generated by graphviz version 2.40.1 (20161225.0304)
 -->
<!-- Title: controllers_diagram Pages: 1 -->
<svg width="611pt" height="589pt"
 viewBox="0.00 0.00 611.38 589.00" xmlns="http://www.w3.org/2000/svg" xmlns:xlink="http://www.w3.org/1999/xlink">
<g id="graph0" class="graph" transform="scale(1 1) rotate(0) translate(4 585)">
<title>controllers_diagram</title>
<polygon fill="transparent" stroke="transparent" points="-4,4 -4,-585 607.3755,-585 607.3755,4 -4,4"/>
<!-- _diagram_info -->
<g id="node1" class="node">
<title>_diagram_info</title>
<text text-anchor="start" x="404" y="-454.6" font-family="Times,serif" font-size="13.00" fill="#000000">Controllers diagram</text>
<text text-anchor="start" x="404" y="-441.6" font-family="Times,serif" font-size="13.00" fill="#000000">Date: Dec 07 2018 &#45; 15:47</text>
<text text-anchor="start" x="404" y="-428.6" font-family="Times,serif" font-size="13.00" fill="#000000">Migration version: 20181203202725</text>
<text text-anchor="start" x="404" y="-415.6" font-family="Times,serif" font-size="13.00" fill="#000000">Generated by RailRoady 1.5.3</text>
<text text-anchor="start" x="404" y="-402.6" font-family="Times,serif" font-size="13.00" fill="#000000">http://railroady.prestonlee.com</text>
</g>
<!-- ApplicationController -->
<g id="node2" class="node">
<title>ApplicationController</title>
<path fill="none" stroke="#000000" d="M318,-.5C318,-.5 433.6416,-.5 433.6416,-.5 439.6416,-.5 445.6416,-6.5 445.6416,-12.5 445.6416,-12.5 445.6416,-80.5 445.6416,-80.5 445.6416,-86.5 439.6416,-92.5 433.6416,-92.5 433.6416,-92.5 318,-92.5 318,-92.5 312,-92.5 306,-86.5 306,-80.5 306,-80.5 306,-12.5 306,-12.5 306,-6.5 312,-.5 318,-.5"/>
<text text-anchor="middle" x="375.8208" y="-77.3" font-family="Times,serif" font-size="14.00" fill="#000000">ApplicationController</text>
<polyline fill="none" stroke="#000000" points="306,-70.5 445.6416,-70.5 "/>
<polyline fill="none" stroke="#000000" points="306,-46.5 445.6416,-46.5 "/>
<polyline fill="none" stroke="#000000" points="306,-22.5 445.6416,-22.5 "/>
<text text-anchor="start" x="314" y="-7.3" font-family="Times,serif" font-size="14.00" fill="#000000">_layout</text>
</g>
<!-- InventoriesController -->
<g id="node3" class="node">
<title>InventoriesController</title>
<path fill="none" stroke="#000000" d="M318,-126.5C318,-126.5 430.5244,-126.5 430.5244,-126.5 436.5244,-126.5 442.5244,-132.5 442.5244,-138.5 442.5244,-138.5 442.5244,-344.5 442.5244,-344.5 442.5244,-350.5 436.5244,-356.5 430.5244,-356.5 430.5244,-356.5 318,-356.5 318,-356.5 312,-356.5 306,-350.5 306,-344.5 306,-344.5 306,-138.5 306,-138.5 306,-132.5 312,-126.5 318,-126.5"/>
<text text-anchor="middle" x="374.2622" y="-341.3" font-family="Times,serif" font-size="14.00" fill="#000000">InventoriesController</text>
<polyline fill="none" stroke="#000000" points="306,-334.5 442.5244,-334.5 "/>
<text text-anchor="start" x="314" y="-319.3" font-family="Times,serif" font-size="14.00" fill="#000000">update</text>
<text text-anchor="start" x="314" y="-305.3" font-family="Times,serif" font-size="14.00" fill="#000000">destroy</text>
<text text-anchor="start" x="314" y="-291.3" font-family="Times,serif" font-size="14.00" fill="#000000">edit</text>
<text text-anchor="start" x="314" y="-277.3" font-family="Times,serif" font-size="14.00" fill="#000000">generate_barcodes</text>
<text text-anchor="start" x="314" y="-263.3" font-family="Times,serif" font-size="14.00" fill="#000000">index</text>
<text text-anchor="start" x="314" y="-249.3" font-family="Times,serif" font-size="14.00" fill="#000000">new</text>
<text text-anchor="start" x="314" y="-235.3" font-family="Times,serif" font-size="14.00" fill="#000000">searchAllInventories</text>
<text text-anchor="start" x="314" y="-221.3" font-family="Times,serif" font-size="14.00" fill="#000000">show</text>
<text text-anchor="start" x="314" y="-207.3" font-family="Times,serif" font-size="14.00" fill="#000000">create</text>
<polyline fill="none" stroke="#000000" points="306,-200.5 442.5244,-200.5 "/>
<polyline fill="none" stroke="#000000" points="306,-176.5 442.5244,-176.5 "/>
<text text-anchor="start" x="314" y="-161.3" font-family="Times,serif" font-size="14.00" fill="#000000">_layout</text>
<text text-anchor="start" x="314" y="-147.3" font-family="Times,serif" font-size="14.00" fill="#000000">inventory_params</text>
<text text-anchor="start" x="314" y="-133.3" font-family="Times,serif" font-size="14.00" fill="#000000">set_inventory</text>
</g>
<!-- RentalsController -->
<g id="node4" class="node">
<title>RentalsController</title>
<path fill="none" stroke="#000000" d="M138,-90.5C138,-90.5 267.6416,-90.5 267.6416,-90.5 273.6416,-90.5 279.6416,-96.5 279.6416,-102.5 279.6416,-102.5 279.6416,-322.5 279.6416,-322.5 279.6416,-328.5 273.6416,-334.5 267.6416,-334.5 267.6416,-334.5 138,-334.5 138,-334.5 132,-334.5 126,-328.5 126,-322.5 126,-322.5 126,-102.5 126,-102.5 126,-96.5 132,-90.5 138,-90.5"/>
<text text-anchor="middle" x="202.8208" y="-319.3" font-family="Times,serif" font-size="14.00" fill="#000000">RentalsController</text>
<polyline fill="none" stroke="#000000" points="126,-312.5 279.6416,-312.5 "/>
<text text-anchor="start" x="134" y="-297.3" font-family="Times,serif" font-size="14.00" fill="#000000">update</text>
<text text-anchor="start" x="134" y="-283.3" font-family="Times,serif" font-size="14.00" fill="#000000">create</text>
<text text-anchor="start" x="134" y="-269.3" font-family="Times,serif" font-size="14.00" fill="#000000">destroy</text>
<text text-anchor="start" x="134" y="-255.3" font-family="Times,serif" font-size="14.00" fill="#000000">edit</text>
<text text-anchor="start" x="134" y="-241.3" font-family="Times,serif" font-size="14.00" fill="#000000">filter_rentals</text>
<text text-anchor="start" x="134" y="-227.3" font-family="Times,serif" font-size="14.00" fill="#000000">index</text>
<text text-anchor="start" x="134" y="-213.3" font-family="Times,serif" font-size="14.00" fill="#000000">new</text>
<text text-anchor="start" x="134" y="-199.3" font-family="Times,serif" font-size="14.00" fill="#000000">show</text>
<text text-anchor="start" x="134" y="-185.3" font-family="Times,serif" font-size="14.00" fill="#000000">store_filter_in_session</text>
<text text-anchor="start" x="134" y="-171.3" font-family="Times,serif" font-size="14.00" fill="#000000">clear_sessions_of_filters</text>
<polyline fill="none" stroke="#000000" points="126,-164.5 279.6416,-164.5 "/>
<polyline fill="none" stroke="#000000" points="126,-140.5 279.6416,-140.5 "/>
<text text-anchor="start" x="134" y="-125.3" font-family="Times,serif" font-size="14.00" fill="#000000">_layout</text>
<text text-anchor="start" x="134" y="-111.3" font-family="Times,serif" font-size="14.00" fill="#000000">rental_params</text>
<text text-anchor="start" x="134" y="-97.3" font-family="Times,serif" font-size="14.00" fill="#000000">set_rental</text>
</g>
<!-- SearchesController -->
<g id="node5" class="node">
<title>SearchesController</title>
<path fill="none" stroke="#000000" d="M12,-432.5C12,-432.5 111.2969,-432.5 111.2969,-432.5 117.2969,-432.5 123.2969,-438.5 123.2969,-444.5 123.2969,-444.5 123.2969,-524.5 123.2969,-524.5 123.2969,-530.5 117.2969,-536.5 111.2969,-536.5 111.2969,-536.5 12,-536.5 12,-536.5 6,-536.5 0,-530.5 0,-524.5 0,-524.5 0,-444.5 0,-444.5 0,-438.5 6,-432.5 12,-432.5"/>
<text text-anchor="middle" x="61.6484" y="-521.3" font-family="Times,serif" font-size="14.00" fill="#000000">SearchesController</text>
<polyline fill="none" stroke="#000000" points="0,-514.5 123.2969,-514.5 "/>
<text text-anchor="start" x="8" y="-499.3" font-family="Times,serif" font-size="14.00" fill="#000000">index</text>
<text text-anchor="start" x="8" y="-485.3" font-family="Times,serif" font-size="14.00" fill="#000000">search</text>
<polyline fill="none" stroke="#000000" points="0,-478.5 123.2969,-478.5 "/>
<polyline fill="none" stroke="#000000" points="0,-454.5 123.2969,-454.5 "/>
<text text-anchor="start" x="8" y="-439.3" font-family="Times,serif" font-size="14.00" fill="#000000">_layout</text>
</g>
<!-- UsersController -->
<g id="node6" class="node">
<title>UsersController</title>
<path fill="none" stroke="#000000" d="M174,-378.5C174,-378.5 255.4277,-378.5 255.4277,-378.5 261.4277,-378.5 267.4277,-384.5 267.4277,-390.5 267.4277,-390.5 267.4277,-568.5 267.4277,-568.5 267.4277,-574.5 261.4277,-580.5 255.4277,-580.5 255.4277,-580.5 174,-580.5 174,-580.5 168,-580.5 162,-574.5 162,-568.5 162,-568.5 162,-390.5 162,-390.5 162,-384.5 168,-378.5 174,-378.5"/>
<text text-anchor="middle" x="214.7139" y="-565.3" font-family="Times,serif" font-size="14.00" fill="#000000">UsersController</text>
<polyline fill="none" stroke="#000000" points="162,-558.5 267.4277,-558.5 "/>
<text text-anchor="start" x="170" y="-543.3" font-family="Times,serif" font-size="14.00" fill="#000000">user_params</text>
<text text-anchor="start" x="170" y="-529.3" font-family="Times,serif" font-size="14.00" fill="#000000">destroy</text>
<text text-anchor="start" x="170" y="-515.3" font-family="Times,serif" font-size="14.00" fill="#000000">edit</text>
<text text-anchor="start" x="170" y="-501.3" font-family="Times,serif" font-size="14.00" fill="#000000">index</text>
<text text-anchor="start" x="170" y="-487.3" font-family="Times,serif" font-size="14.00" fill="#000000">new</text>
<text text-anchor="start" x="170" y="-473.3" font-family="Times,serif" font-size="14.00" fill="#000000">set_user</text>
<text text-anchor="start" x="170" y="-459.3" font-family="Times,serif" font-size="14.00" fill="#000000">show</text>
<text text-anchor="start" x="170" y="-445.3" font-family="Times,serif" font-size="14.00" fill="#000000">update</text>
<text text-anchor="start" x="170" y="-431.3" font-family="Times,serif" font-size="14.00" fill="#000000">create</text>
<polyline fill="none" stroke="#000000" points="162,-424.5 267.4277,-424.5 "/>
<polyline fill="none" stroke="#000000" points="162,-400.5 267.4277,-400.5 "/>
<text text-anchor="start" x="170" y="-385.3" font-family="Times,serif" font-size="14.00" fill="#000000">_layout</text>
</g>
</g>
</svg>
