<?xml version="1.0" encoding="UTF-8" standalone="no"?>
<!DOCTYPE svg PUBLIC "-//W3C//DTD SVG 1.1//EN"
 "http://www.w3.org/Graphics/SVG/1.1/DTD/svg11.dtd">
<!-- Generated by graphviz version 2.40.1 (20161225.0304)
 -->
<!-- Title: models_diagram Pages: 1 -->
<svg width="723pt" height="372pt"
 viewBox="0.00 0.00 722.80 372.00" xmlns="http://www.w3.org/2000/svg" xmlns:xlink="http://www.w3.org/1999/xlink">
<g id="graph0" class="graph" transform="scale(1 1) rotate(0) translate(4 368)">
<title>models_diagram</title>
<polygon fill="transparent" stroke="transparent" points="-4,4 -4,-368 718.7966,-368 718.7966,4 -4,4"/>
<!-- _diagram_info -->
<g id="node1" class="node">
<title>_diagram_info</title>
<text text-anchor="start" x="8" y="-279.6" font-family="Times,serif" font-size="13.00" fill="#000000">Models diagram</text>
<text text-anchor="start" x="8" y="-266.6" font-family="Times,serif" font-size="13.00" fill="#000000">Date: Dec 07 2018 &#45; 15:47</text>
<text text-anchor="start" x="8" y="-253.6" font-family="Times,serif" font-size="13.00" fill="#000000">Migration version: 20181203202725</text>
<text text-anchor="start" x="8" y="-240.6" font-family="Times,serif" font-size="13.00" fill="#000000">Generated by RailRoady 1.5.3</text>
<text text-anchor="start" x="8" y="-227.6" font-family="Times,serif" font-size="13.00" fill="#000000">http://railroady.prestonlee.com</text>
</g>
<!-- Bulk -->
<g id="node2" class="node">
<title>Bulk</title>
<path fill="none" stroke="#000000" d="M237.2512,-193.5C237.2512,-193.5 364.1243,-193.5 364.1243,-193.5 370.1243,-193.5 376.1243,-199.5 376.1243,-205.5 376.1243,-205.5 376.1243,-309.5 376.1243,-309.5 376.1243,-315.5 370.1243,-321.5 364.1243,-321.5 364.1243,-321.5 237.2512,-321.5 237.2512,-321.5 231.2512,-321.5 225.2512,-315.5 225.2512,-309.5 225.2512,-309.5 225.2512,-205.5 225.2512,-205.5 225.2512,-199.5 231.2512,-193.5 237.2512,-193.5"/>
<text text-anchor="middle" x="300.6877" y="-306.3" font-family="Times,serif" font-size="14.00" fill="#000000">Bulk</text>
<polyline fill="none" stroke="#000000" points="225.2512,-299.5 376.1243,-299.5 "/>
<text text-anchor="start" x="233.2512" y="-284.3" font-family="Times,serif" font-size="14.00" fill="#000000">Quantity :integer</text>
<text text-anchor="start" x="233.2512" y="-270.3" font-family="Times,serif" font-size="14.00" fill="#000000">Gear_Type :varchar</text>
<text text-anchor="start" x="233.2512" y="-256.3" font-family="Times,serif" font-size="14.00" fill="#000000">Gear_Category :varchar</text>
<text text-anchor="start" x="233.2512" y="-242.3" font-family="Times,serif" font-size="14.00" fill="#000000">id :INTEGER</text>
<text text-anchor="start" x="233.2512" y="-228.3" font-family="Times,serif" font-size="14.00" fill="#000000">location :varchar</text>
<text text-anchor="start" x="233.2512" y="-214.3" font-family="Times,serif" font-size="14.00" fill="#000000">Notes :varchar</text>
<text text-anchor="start" x="233.2512" y="-200.3" font-family="Times,serif" font-size="14.00" fill="#000000">Bulk :boolean</text>
</g>
<!-- Inventory -->
<g id="node3" class="node">
<title>Inventory</title>
<path fill="none" stroke="#000000" d="M406.5271,-158.5C406.5271,-158.5 538.8484,-158.5 538.8484,-158.5 544.8484,-158.5 550.8484,-164.5 550.8484,-170.5 550.8484,-170.5 550.8484,-344.5 550.8484,-344.5 550.8484,-350.5 544.8484,-356.5 538.8484,-356.5 538.8484,-356.5 406.5271,-356.5 406.5271,-356.5 400.5271,-356.5 394.5271,-350.5 394.5271,-344.5 394.5271,-344.5 394.5271,-170.5 394.5271,-170.5 394.5271,-164.5 400.5271,-158.5 406.5271,-158.5"/>
<text text-anchor="middle" x="472.6877" y="-341.3" font-family="Times,serif" font-size="14.00" fill="#000000">Inventory</text>
<polyline fill="none" stroke="#000000" points="394.5271,-334.5 550.8484,-334.5 "/>
<text text-anchor="start" x="402.5271" y="-319.3" font-family="Times,serif" font-size="14.00" fill="#000000">Notes :varchar</text>
<text text-anchor="start" x="402.5271" y="-305.3" font-family="Times,serif" font-size="14.00" fill="#000000">blahID :varchar</text>
<text text-anchor="start" x="402.5271" y="-291.3" font-family="Times,serif" font-size="14.00" fill="#000000">Bulk :boolean</text>
<text text-anchor="start" x="402.5271" y="-277.3" font-family="Times,serif" font-size="14.00" fill="#000000">Gear_Type :varchar</text>
<text text-anchor="start" x="402.5271" y="-263.3" font-family="Times,serif" font-size="14.00" fill="#000000">Brand :varchar</text>
<text text-anchor="start" x="402.5271" y="-249.3" font-family="Times,serif" font-size="14.00" fill="#000000">Size :varchar</text>
<text text-anchor="start" x="402.5271" y="-235.3" font-family="Times,serif" font-size="14.00" fill="#000000">Serial_Number :varchar</text>
<text text-anchor="start" x="402.5271" y="-221.3" font-family="Times,serif" font-size="14.00" fill="#000000">Date_Purchased :varchar</text>
<text text-anchor="start" x="402.5271" y="-207.3" font-family="Times,serif" font-size="14.00" fill="#000000">Gear_Category :varchar</text>
<text text-anchor="start" x="402.5271" y="-193.3" font-family="Times,serif" font-size="14.00" fill="#000000">Location :varchar</text>
<text text-anchor="start" x="402.5271" y="-179.3" font-family="Times,serif" font-size="14.00" fill="#000000">Available :boolean</text>
<text text-anchor="start" x="402.5271" y="-165.3" font-family="Times,serif" font-size="14.00" fill="#000000">id :INTEGER</text>
</g>
<!-- User -->
<g id="node5" class="node">
<title>User</title>
<path fill="none" stroke="#000000" d="M411.9685,-.5C411.9685,-.5 533.407,-.5 533.407,-.5 539.407,-.5 545.407,-6.5 545.407,-12.5 545.407,-12.5 545.407,-102.5 545.407,-102.5 545.407,-108.5 539.407,-114.5 533.407,-114.5 533.407,-114.5 411.9685,-114.5 411.9685,-114.5 405.9685,-114.5 399.9685,-108.5 399.9685,-102.5 399.9685,-102.5 399.9685,-12.5 399.9685,-12.5 399.9685,-6.5 405.9685,-.5 411.9685,-.5"/>
<text text-anchor="middle" x="472.6877" y="-99.3" font-family="Times,serif" font-size="14.00" fill="#000000">User</text>
<polyline fill="none" stroke="#000000" points="399.9685,-92.5 545.407,-92.5 "/>
<text text-anchor="start" x="407.9685" y="-77.3" font-family="Times,serif" font-size="14.00" fill="#000000">id :INTEGER</text>
<text text-anchor="start" x="407.9685" y="-63.3" font-family="Times,serif" font-size="14.00" fill="#000000">first_name :varchar</text>
<text text-anchor="start" x="407.9685" y="-49.3" font-family="Times,serif" font-size="14.00" fill="#000000">last_name :varchar</text>
<text text-anchor="start" x="407.9685" y="-35.3" font-family="Times,serif" font-size="14.00" fill="#000000">email_address :varchar</text>
<text text-anchor="start" x="407.9685" y="-21.3" font-family="Times,serif" font-size="14.00" fill="#000000">student_ID :varchar</text>
<text text-anchor="start" x="407.9685" y="-7.3" font-family="Times,serif" font-size="14.00" fill="#000000">phone :varchar</text>
</g>
<!-- Inventory&#45;&gt;User -->
<g id="edge1" class="edge">
<title>Inventory&#45;&gt;User</title>
<path fill="none" stroke="#2570f9" d="M472.6877,-148.176C472.6877,-140.2155 472.6877,-132.3344 472.6877,-124.7371"/>
<polygon fill="#2570f9" stroke="#2570f9" points="472.6878,-148.3789 468.1877,-158.3789 472.6878,-153.3789 472.6877,-158.3789 472.6877,-158.3789 472.6877,-158.3789 472.6878,-153.3789 477.1877,-158.3789 472.6878,-148.3789 472.6878,-148.3789"/>
<polygon fill="#2570f9" stroke="#2570f9" points="472.6878,-124.572 477.1877,-114.572 472.6878,-119.572 472.6877,-114.572 472.6877,-114.572 472.6877,-114.572 472.6878,-119.572 468.1877,-114.5721 472.6878,-124.572 472.6878,-124.572"/>
</g>
<!-- Rental -->
<g id="node4" class="node">
<title>Rental</title>
<path fill="none" stroke="#000000" d="M580.5789,-151.5C580.5789,-151.5 702.7966,-151.5 702.7966,-151.5 708.7966,-151.5 714.7966,-157.5 714.7966,-163.5 714.7966,-163.5 714.7966,-351.5 714.7966,-351.5 714.7966,-357.5 708.7966,-363.5 702.7966,-363.5 702.7966,-363.5 580.5789,-363.5 580.5789,-363.5 574.5789,-363.5 568.5789,-357.5 568.5789,-351.5 568.5789,-351.5 568.5789,-163.5 568.5789,-163.5 568.5789,-157.5 574.5789,-151.5 580.5789,-151.5"/>
<text text-anchor="middle" x="641.6877" y="-348.3" font-family="Times,serif" font-size="14.00" fill="#000000">Rental</text>
<polyline fill="none" stroke="#000000" points="568.5789,-341.5 714.7966,-341.5 "/>
<text text-anchor="start" x="576.5789" y="-326.3" font-family="Times,serif" font-size="14.00" fill="#000000">updated_at :datetime</text>
<text text-anchor="start" x="576.5789" y="-312.3" font-family="Times,serif" font-size="14.00" fill="#000000">user_ID :integer</text>
<text text-anchor="start" x="576.5789" y="-298.3" font-family="Times,serif" font-size="14.00" fill="#000000">first_name :varchar</text>
<text text-anchor="start" x="576.5789" y="-284.3" font-family="Times,serif" font-size="14.00" fill="#000000">last_name :varchar</text>
<text text-anchor="start" x="576.5789" y="-270.3" font-family="Times,serif" font-size="14.00" fill="#000000">Gear_Type :varchar</text>
<text text-anchor="start" x="576.5789" y="-256.3" font-family="Times,serif" font-size="14.00" fill="#000000">Model :varchar</text>
<text text-anchor="start" x="576.5789" y="-242.3" font-family="Times,serif" font-size="14.00" fill="#000000">Brand :varchar</text>
<text text-anchor="start" x="576.5789" y="-228.3" font-family="Times,serif" font-size="14.00" fill="#000000">rental_date :varchar</text>
<text text-anchor="start" x="576.5789" y="-214.3" font-family="Times,serif" font-size="14.00" fill="#000000">return_date :varchar</text>
<text text-anchor="start" x="576.5789" y="-200.3" font-family="Times,serif" font-size="14.00" fill="#000000">days_used :integer</text>
<text text-anchor="start" x="576.5789" y="-186.3" font-family="Times,serif" font-size="14.00" fill="#000000">on_time_price :varchar</text>
<text text-anchor="start" x="576.5789" y="-172.3" font-family="Times,serif" font-size="14.00" fill="#000000">created_at :datetime</text>
<text text-anchor="start" x="576.5789" y="-158.3" font-family="Times,serif" font-size="14.00" fill="#000000">id :INTEGER</text>
</g>
</g>
</svg>
